HIERARCHY
ROOT Hips
{
	OFFSET 0.000000 0.000000 0.000000
	CHANNELS 6 Xposition Yposition Zposition Zrotation Yrotation Xrotation 
	JOINT LHipJoint
	{
		OFFSET 0.000000 0.000000 0.000000
		CHANNELS 3 Zrotation Yrotation Xrotation
		JOINT LeftUpLeg
		{
			OFFSET 1.363060 -1.794630 0.839290
			CHANNELS 3 Zrotation Yrotation Xrotation
			JOINT LeftLeg
			{
				OFFSET 2.448110 -6.726130 0.000000
				CHANNELS 3 Zrotation Yrotation Xrotation
				JOINT LeftFoot
				{
					OFFSET 2.562200 -7.039590 0.000000
					CHANNELS 3 Zrotation Yrotation Xrotation
					JOINT LeftToeBase
					{
						OFFSET 0.157640 -0.433110 2.322550
						CHANNELS 3 Zrotation Yrotation Xrotation
						End Site
						{
							OFFSET 0.000000 0.000000 0.000000
						}
					}
				}
			}
		}
	}
	JOINT RHipJoint
	{
		OFFSET 0.000000 0.000000 0.000000
		CHANNELS 3 Zrotation Yrotation Xrotation
		JOINT RightUpLeg
		{
			OFFSET -1.305520 -1.794630 0.839290
			CHANNELS 3 Zrotation Yrotation Xrotation
			JOINT RightLeg
			{
				OFFSET -2.542530 -6.985550 0.000000
				CHANNELS 3 Zrotation Yrotation Xrotation
				JOINT RightFoot
				{
					OFFSET -2.568260 -7.056230 0.000000
					CHANNELS 3 Zrotation Yrotation Xrotation
					JOINT RightToeBase
					{
						OFFSET -0.164730 -0.452590 2.363150
						CHANNELS 3 Zrotation Yrotation Xrotation
						End Site
						{
							OFFSET 0.000000 0.000000 0.000000
						}
					}
				}
			}
		}
	}
}
MOTION
Frames: 14
Frame Time: 0.008333
-3.022353 16.725305 -1.908434 16.660438 74.150855 36.130324 -9.093705 0.878868 3.844988 -13.162356 -3.406325 -46.067237 -3.342709 0.754046 21.204978 -1.163049 -9.102182 4.464615 -1.459100 -0.000000 -30.981300 11.412323 -2.870061 1.026038 -1.292481 -2.001555 -14.192494 0.843196 -2.518791 40.707935 1.423791 22.151264 3.563200 3.373600 -0.000000 -66.258100
-2.890889 16.703841 -1.884153 17.331885 73.564805 36.768428 -9.007939 0.963830 3.721228 -13.851625 -3.242326 -46.348354 -3.289813 0.901605 23.108092 -1.069180 -8.394482 3.516575 -1.208600 0.000000 -28.251700 11.620289 -2.842117 1.083754 -2.133374 -2.067610 -15.062351 0.656908 -2.653195 42.594264 1.373052 22.678551 4.449236 3.819500 -0.000000 -65.960900
-2.765599 16.696825 -1.859998 17.716215 72.896778 37.128321 -8.918812 1.034338 3.616056 -14.376624 -3.169526 -46.347789 -3.247257 0.988106 24.519081 -0.954460 -7.559777 2.424682 -0.943300 0.000000 -26.399300 11.805864 -2.792191 1.141591 -2.882672 -1.967938 -15.958305 0.455855 -2.782642 44.453064 1.308085 22.871759 5.430287 4.279099 -0.000000 -65.131800
-2.645723 16.704001 -1.836979 17.780864 72.155825 37.162263 -8.837122 1.090879 3.519272 -14.748310 -3.125108 -46.077891 -3.220481 1.019834 25.439779 -0.827511 -6.686563 1.273730 -0.697300 0.000001 -25.444200 11.961305 -2.724890 1.197996 -3.512373 -1.713937 -16.852246 0.244894 -2.904096 46.263903 1.229568 22.667989 6.448806 4.696300 0.000000 -63.843400
-2.530307 16.724319 -1.815881 17.531530 71.355989 36.860333 -8.771729 1.134325 3.421217 -14.981318 -3.054914 -45.556390 -3.209486 1.004887 25.896956 -0.696199 -5.834982 0.150296 -0.490000 -0.000000 -25.284600 12.082405 -2.645330 1.249762 -4.002860 -1.332680 -17.716908 0.029045 -3.015448 48.008487 1.136902 22.019907 7.447170 5.009999 0.000000 -62.243100
-2.418334 16.756074 -1.797144 17.004927 70.514256 36.245345 -8.728803 1.166266 3.313979 -15.093303 -2.917642 -44.803366 -3.210368 0.952285 25.935023 -0.567602 -5.039861 -0.861935 -0.328100 -0.000000 -25.756101 12.168515 -2.558130 1.292580 -4.343725 -0.862559 -18.526718 -0.186719 -3.115419 49.668956 1.027895 20.898957 8.369720 5.162800 -0.000000 -60.530200
-2.308620 16.797173 -1.781119 16.233459 69.651433 35.342969 -8.715070 1.188598 3.193098 -15.095801 -2.678468 -43.855102 -3.216640 0.872785 25.621396 -0.448530 -4.324740 -1.695334 -0.209600 -0.000000 -26.653000 12.218170 -2.468041 1.324152 -4.519747 -0.340801 -19.262270 -0.397680 -3.202117 51.226329 0.898757 19.292741 9.165826 5.109800 0.000000 -58.915400
-2.200138 16.845199 -1.767541 15.297439 68.788712 34.229255 -8.729759 1.204879 3.057364 -15.014222 -2.330563 -42.739474 -3.222611 0.775505 25.020790 -0.343105 -3.688441 -2.298787 -0.125800 -0.000001 -27.763400 12.236955 -2.377013 1.339856 -4.541589 0.180351 -19.909833 -0.598933 -3.275762 52.664291 0.744865 17.223074 9.786185 4.828300 -0.000000 -57.540501
-2.091985 16.897790 -1.756010 14.258548 67.948945 32.968699 -8.772547 1.218794 2.909213 -14.867515 -1.874036 -41.498709 -3.223234 0.670089 24.210319 -0.254081 -3.128791 -2.650232 -0.067200 0.000000 -28.883300 12.228452 -2.286784 1.337667 -4.416172 0.656482 -20.463927 -0.785551 -3.335970 53.966804 0.561821 14.736103 10.183490 4.319300 -0.000000 -56.443800
-1.983341 16.952683 -1.745897 13.172035 67.153796 31.627465 -8.841415 1.234532 2.755345 -14.673797 -1.321490 -40.183440 -3.215611 0.564921 23.267266 -0.182104 -2.640397 -2.757010 -0.024501 -0.000000 -29.838800 12.196323 -2.198564 1.317942 -4.155635 1.047797 -20.930891 -0.952719 -3.382325 55.120580 0.346763 11.908167 10.314957 3.611100 0.000000 -55.544100
-1.873801 17.007994 -1.736392 12.095155 66.422729 30.273518 -8.931171 1.255917 2.602636 -14.453567 -0.696938 -38.835632 -3.199404 0.465791 22.256352 -0.125591 -2.213466 -2.650224 0.009300 0.000001 -30.524400 12.145799 -2.112274 1.279825 -3.783172 1.317799 -21.319785 -1.095807 -3.415407 56.113985 0.099950 8.849031 10.148462 2.759400 0.000000 -54.658500
-1.763088 17.062244 -1.726695 11.062483 65.770754 28.959383 -9.037246 1.286137 2.461185 -14.220758 -0.027662 -37.506026 -3.176180 0.376510 21.235542 -0.082120 -1.842740 -2.383358 0.038600 0.000000 -30.882400 12.080000 -2.028665 1.226712 -3.319009 1.444714 -21.651661 -1.211282 -3.434899 56.937836 -0.174342 5.690219 9.674557 1.839800 -0.000000 -53.604000
-1.651325 17.114412 -1.716056 10.100475 65.206689 27.725322 -9.153743 1.326915 2.337946 -13.988063 0.658763 -36.228441 -3.149025 0.298058 20.243461 -0.048716 -1.523367 -2.020278 0.065600 -0.000000 -30.924400 12.002512 -1.948072 1.160496 -2.787979 1.416338 -21.943917 -1.296780 -3.441173 57.583879 -0.467155 2.577202 8.912509 0.937000 -0.000000 -52.241400
-1.538696 17.163923 -1.703909 9.219805 64.731709 26.597919 -9.275567 1.378819 2.240436 -13.763176 1.335990 -35.034877 -3.121645 0.229390 19.304435 -0.022744 -1.253249 -1.627695 0.090500 -0.000000 -30.704300 11.915590 -1.871486 1.086053 -2.211200 1.234748 -22.220529 -1.351729 -3.434071 58.046836 -0.765516 -0.349132 7.915479 0.127600 -0.000001 -50.540200
